<svg xmlns="http://www.w3.org/2000/svg" width="18.7485" height="17.25075" viewBox="0 0 24.998 23.001">
    <path id="Exclusion_3" data-name="Exclusion 3"
        d="M20201.613-317h-19.223a2.415,2.415,0,0,1-2.389-2.434v-17.113a2.427,2.427,0,0,1,2.393-2.454h6.01a3.835,3.835,0,0,1,3.291,2.277l.547,1.389h9.371A2.416,2.416,0,0,1,20204-332.9v13.462A2.413,2.413,0,0,1,20201.613-317Zm-14.949-9.664a.664.664,0,0,0-.664.664.664.664,0,0,0,.664.664h4.67v4.67a.664.664,0,0,0,.664.664.668.668,0,0,0,.67-.664v-4.67h4.67A.664.664,0,0,0,20198-326a.664.664,0,0,0-.664-.664h-4.67v-4.67a.668.668,0,0,0-.67-.664.664.664,0,0,0-.664.664v4.67Z"
        transform="translate(-20179.502 339.501)" fill="#fff" stroke="rgba(0,0,0,0)"
        stroke-miterlimit="10" stroke-width="1"></path>
</svg>