<svg xmlns="http://www.w3.org/2000/svg" xmlns:xlink="http://www.w3.org/1999/xlink" width="36" height="90" viewBox="0 0 36 90"><defs><clipPath id="a"><path d="M6.385.255.261,6.378l-.006,0a.882.882,0,0,0,0,1.24l.007,0,6.121,6.12a.875.875,0,0,0,1.237-1.237L2.987,7.876H14.875a.874.874,0,1,0,0-1.749H2.987L7.622,1.492A.875.875,0,0,0,6.385.255Z" fill="#f8faff"/></clipPath></defs><g transform="translate(-1)"><rect width="36" height="90" transform="translate(1)" fill="#344563"/><g transform="translate(8 34)"><path d="M6.385.255.261,6.378l-.006,0a.882.882,0,0,0,0,1.24l.007,0,6.121,6.12a.875.875,0,0,0,1.237-1.237L2.987,7.876H14.875a.874.874,0,1,0,0-1.749H2.987L7.622,1.492A.875.875,0,0,0,6.385.255Z" transform="translate(3 4.001)" fill="#f8faff"/><g transform="translate(3 4.001)" clip-path="url(#a)"><g transform="translate(-2.625 -3.5)"><path d="M0,21H21V0H0Z" fill="#f8faff"/></g></g></g></g></svg>