<svg xmlns="http://www.w3.org/2000/svg" width="10.5" height="9.627" viewBox="0 0 14 9.627"><g transform="translate(-0.001 -80)"><g transform="translate(2.63 80)"><g transform="translate(0 0)"><path d="M105.8,80H97.055a.875.875,0,0,0,0,1.749H105.8a.875.875,0,1,0,0-1.749Z" transform="translate(-96.18 -80)" fill="#344563"/></g></g><g transform="translate(0.001 80.004)"><g transform="translate(0 0)"><path d="M1.755,81.006a.875.875,0,0,0-1.749,0,.745.745,0,0,0,0,.171.789.789,0,0,0,.048.166,1.015,1.015,0,0,0,.083.149.8.8,0,0,0,.109.136.775.775,0,0,0,.131.1.714.714,0,0,0,.149.083.722.722,0,0,0,.184.066.767.767,0,0,0,.171,0,.875.875,0,0,0,.617-.254.8.8,0,0,0,.109-.136,1.015,1.015,0,0,0,.083-.149.812.812,0,0,0,.066-.166A.745.745,0,0,0,1.755,81.006Z" transform="translate(-0.001 -80.135)" fill="#344563"/></g></g><g transform="translate(0.006 83.94)"><path d="M1.929,225.006a.748.748,0,0,0,0-.171.708.708,0,0,0-.066-.162.874.874,0,0,0-.083-.153.63.63,0,0,0-.109-.131.875.875,0,0,0-1.491.617.872.872,0,0,0,.144.485.839.839,0,0,0,.114.131.639.639,0,0,0,.131.109.71.71,0,0,0,.149.083.742.742,0,0,0,.166.048.725.725,0,0,0,.171.018.745.745,0,0,0,.171,0,.71.71,0,0,0,.162-.048.731.731,0,0,0,.153-.083.639.639,0,0,0,.131-.109.638.638,0,0,0,.109-.131.7.7,0,0,0,.083-.149.74.74,0,0,0,.066-.184A.724.724,0,0,0,1.929,225.006Z" transform="translate(-0.18 -224.135)" fill="#344563"/></g><g transform="translate(0.006 87.876)"><path d="M1.927,369.006a.751.751,0,0,0,0-.171.744.744,0,0,0-.066-.166,1.016,1.016,0,0,0-.083-.149.639.639,0,0,0-.109-.131.875.875,0,0,0-1.233,0,.639.639,0,0,0-.109.131,1.016,1.016,0,0,0-.083.149.716.716,0,0,0-.048.166.752.752,0,0,0-.017.171.875.875,0,0,0,.258.617.638.638,0,0,0,.131.109.71.71,0,0,0,.149.083.743.743,0,0,0,.166.048.727.727,0,0,0,.171.018.745.745,0,0,0,.171,0,.711.711,0,0,0,.162-.048.732.732,0,0,0,.153-.083.638.638,0,0,0,.131-.109.639.639,0,0,0,.109-.131.7.7,0,0,0,.083-.149.743.743,0,0,0,.066-.184A.724.724,0,0,0,1.927,369.006Z" transform="translate(-0.178 -368.135)" fill="#344563"/></g><g transform="translate(2.63 83.936)"><g transform="translate(0 0)"><path d="M106.676,224H97.055a.875.875,0,0,0,0,1.749h9.622a.875.875,0,0,0,0-1.749Z" transform="translate(-96.18 -224)" fill="#344563"/></g></g><g transform="translate(2.63 87.872)"><g transform="translate(0 0)"><path d="M102.74,368H97.055a.875.875,0,0,0,0,1.749h5.686a.875.875,0,0,0,0-1.749Z" transform="translate(-96.18 -368)" fill="#344563"/></g></g></g></svg>