<svg xmlns="http://www.w3.org/2000/svg" xmlns:xlink="http://www.w3.org/1999/xlink" width="18" height="18" viewBox="0 0 18 18">
  <defs>
    <clipPath id="clip-path">
      <path id="Combined_Shape" data-name="Combined Shape" d="M9,18a9,9,0,1,1,9-9A9.01,9.01,0,0,1,9,18ZM6,8a1,1,0,0,0-.707,1.708l2,2a1,1,0,0,0,1.415,0l4-4a1,1,0,1,0-1.414-1.414L8,9.586,6.707,8.293A.993.993,0,0,0,6,8Z" transform="translate(3 3)" fill="green"/>
    </clipPath>
  </defs>
  <g id="Group_101" data-name="Group 101" transform="translate(-3 -3)">
    <path id="Combined_Shape-2" data-name="Combined Shape" d="M9,18a9,9,0,1,1,9-9A9.01,9.01,0,0,1,9,18ZM6,8a1,1,0,0,0-.707,1.708l2,2a1,1,0,0,0,1.415,0l4-4a1,1,0,1,0-1.414-1.414L8,9.586,6.707,8.293A.993.993,0,0,0,6,8Z" transform="translate(3 3)" fill="#42526e"/>
    <g id="Mask_Group_101" data-name="Mask Group 101" clip-path="url(#clip-path)">
      <g id="_Color" data-name="↳ 🎨Color">
        <path id="N500" d="M0,24H24V0H0Z" fill="green"/>
      </g>
    </g>
  </g>
</svg>
