<svg xmlns="http://www.w3.org/2000/svg" width="23.145" height="28" viewBox="0 0 23.145 28"><defs><style>.a{fill:#42526e;}</style></defs><g transform="translate(-2 0.226)"><path class="a" d="M20.315,8.629a2.315,2.315,0,1,1,2.315-2.315A2.317,2.317,0,0,1,20.315,8.629Z" transform="translate(2.516 0.629)"/><circle class="a" cx="2" cy="2" r="2" transform="translate(17 -0.226)"/><path class="a" d="M23.649,12.861,16.127,5.339A1.157,1.157,0,0,0,14.49,6.975l.161.161L3.492,18.3a5.091,5.091,0,1,0,7.2,7.2L21.852,14.336l.161.161a1.157,1.157,0,0,0,1.636-1.635ZM6.629,23.516a1.157,1.157,0,1,1,1.157-1.157A1.158,1.158,0,0,1,6.629,23.516Zm4.629-3.472a1.157,1.157,0,1,1,1.157-1.157A1.158,1.158,0,0,1,11.258,20.044ZM17.013,15.9a1.84,1.84,0,0,1-1.4-.119l-.911-.514a3.614,3.614,0,0,0-3.415,0l-.9.506a1.858,1.858,0,0,1-1.272.168l7.173-7.173L20.214,12.7Z" transform="translate(0 0.786)"/><path class="a" d="M13.355,12.1a1.173,1.173,0,0,1-1.643,0L10.45,10.843,12.093,9.2l1.261,1.261A1.166,1.166,0,0,1,13.355,12.1Z" transform="translate(1.329 1.447)"/></g></svg>