<svg xmlns="http://www.w3.org/2000/svg" width="18.7485" height="17.25075"
                                    viewBox="0 0 24.998 23.001">
                                    <path id="Exclusion_4" data-name="Exclusion 4"
                                        d="M20201.613-317h-19.223a2.415,2.415,0,0,1-2.389-2.434v-17.113a2.427,2.427,0,0,1,2.393-2.454h6.01a3.835,3.835,0,0,1,3.291,2.277l.547,1.389h9.371A2.416,2.416,0,0,1,20204-332.9v13.462A2.413,2.413,0,0,1,20201.613-317Zm-14-6.668a.614.614,0,0,0-.613.614v2.383a.673.673,0,0,0,.674.669h2.383a.608.608,0,0,0,.607-.608.611.611,0,0,0-.607-.614h-.848l2.486-2.485a.659.659,0,0,0,.193-.479.682.682,0,0,0-.2-.479l-.02-.02a.681.681,0,0,0-.482-.2.676.676,0,0,0-.482.2l-2.484,2.485v-.847A.611.611,0,0,0,20187.613-323.668Zm7.332-7.332a.612.612,0,0,0-.609.614.61.61,0,0,0,.609.608h.947l-2.348,2.353a.6.6,0,0,0-.178.431.6.6,0,0,0,.178.431l.016.02a.6.6,0,0,0,.436.177.61.61,0,0,0,.432-.177l2.348-2.353v.948a.614.614,0,0,0,.613.614.614.614,0,0,0,.613-.614v-2.378a.674.674,0,0,0-.674-.674Z"
                                        transform="translate(-20179.502 339.501)" fill="#fff" stroke="rgba(0,0,0,0)"
                                        stroke-miterlimit="10" stroke-width="1"></path>
                                </svg>