<svg xmlns="http://www.w3.org/2000/svg" width="23.351" height="24" viewBox="0 0 23.351 24"><g transform="translate(-5.768)"><g transform="translate(5.768)"><path d="M28.889,15.156,26.357,13.17A9.424,9.424,0,0,0,26.441,12a9.424,9.424,0,0,0-.084-1.17l2.538-1.986a.6.6,0,0,0,.144-.768l-2.4-4.158a.594.594,0,0,0-.732-.258L22.919,4.866a9.105,9.105,0,0,0-2.028-1.182L20.441.5a.617.617,0,0,0-.6-.5h-4.8a.606.606,0,0,0-.594.5L14,3.684a8.88,8.88,0,0,0-2.028,1.182L8.981,3.66a.6.6,0,0,0-.732.258l-2.4,4.158a.6.6,0,0,0,.144.768L8.525,10.83A9.424,9.424,0,0,0,8.441,12a9.424,9.424,0,0,0,.084,1.17L5.993,15.156a.6.6,0,0,0-.144.768l2.4,4.158a.594.594,0,0,0,.732.258l2.988-1.206A9.105,9.105,0,0,0,14,20.316l.45,3.18a.606.606,0,0,0,.594.5h4.8a.606.606,0,0,0,.594-.5l.45-3.18a8.88,8.88,0,0,0,2.028-1.182L25.9,20.34a.6.6,0,0,0,.732-.258l2.4-4.158A.6.6,0,0,0,28.889,15.156ZM17.441,16.2a4.2,4.2,0,1,1,4.2-4.2A4.2,4.2,0,0,1,17.441,16.2Z" transform="translate(-5.768)" fill="#0052cc"/></g></g></svg>