<svg xmlns="http://www.w3.org/2000/svg" width="21" height="21" viewBox="0 0 28 28"><g transform="translate(-1016 -703)"><path d="M2,0H26a2,2,0,0,1,2,2V26a2,2,0,0,1-2,2H2a2,2,0,0,1-2-2V2A2,2,0,0,1,2,0Z" transform="translate(1016 703)" fill="#6554c0"/><path d="M13.846,8.342A.851.851,0,0,0,14,7.875.875.875,0,0,0,13.125,7H8.75V.875A.875.875,0,0,0,7.875,0a.866.866,0,0,0-.651.3l0,0L.261,9l-.014.016L.2,9.082l0,.007a.853.853,0,0,0-.2.536.875.875,0,0,0,.875.875.682.682,0,0,0,.135-.028H5.25v6.153a.875.875,0,0,0,.875.875.866.866,0,0,0,.562-.217l.007,0,.012-.016a.885.885,0,0,0,.129-.161l6.885-8.6a.806.806,0,0,0,.082-.1l.047-.058Z" transform="translate(1023 708.25)" fill="#fff"/></g></svg>