<svg xmlns="http://www.w3.org/2000/svg" xmlns:xlink="http://www.w3.org/1999/xlink" width="21" height="21" viewBox="0 0 28 28"><defs><clipPath id="a"><path d="M25,28H3a3,3,0,0,1-3-3V3A3,3,0,0,1,3,0H25a3,3,0,0,1,3,3V25A3,3,0,0,1,25,28ZM14,17.129h0l3.755,3.622a.867.867,0,0,0,.612.249.857.857,0,0,0,.882-.847V8.689A1.722,1.722,0,0,0,17.5,7h-7A1.722,1.722,0,0,0,8.75,8.689V20.154A.857.857,0,0,0,9.63,21a.879.879,0,0,0,.613-.249L14,17.129Z" transform="translate(0 0)" fill="#ff5630"/></clipPath></defs><path d="M25,28H3a3,3,0,0,1-3-3V3A3,3,0,0,1,3,0H25a3,3,0,0,1,3,3V25A3,3,0,0,1,25,28ZM14,17.129h0l3.755,3.622a.867.867,0,0,0,.612.249.857.857,0,0,0,.882-.847V8.689A1.722,1.722,0,0,0,17.5,7h-7A1.722,1.722,0,0,0,8.75,8.689V20.154A.857.857,0,0,0,9.63,21a.879.879,0,0,0,.613-.249L14,17.129Z" transform="translate(0 0)" fill="#ff5630"/><g transform="translate(0 0)" clip-path="url(#a)"><g transform="translate(-7 -7)"><path d="M0,0H42V42H0Z" fill="#36b37e"/></g></g></svg>