<svg id="Livello_98" xmlns="http://www.w3.org/2000/svg" width="18.529" height="12.127" viewBox="0 0 18.529 12.127">
  <path id="Path_123" data-name="Path 123" d="M4.878,8A4.757,4.757,0,0,0,0,12.027H2.454v-.014A5.39,5.39,0,0,1,4.517,8.274q.175-.142.361-.271m.979-4.426a4.4,4.4,0,0,1,.1-.916A1.985,1.985,0,0,0,5,2.415a2.59,2.59,0,0,0-2.32,2.793A2.62,2.62,0,0,0,4.885,8,6.82,6.82,0,0,1,6.705,7.1a2.851,2.851,0,0,0,.352-.6,4,4,0,0,1-1.2-2.927m6.35-.033C12.207,1.586,10.89,0,9.265,0S6.322,1.586,6.322,3.543A3.419,3.419,0,0,0,8.77,7.037c-3.131.208-5.627,2.377-5.851,5.09H15.61c-.224-2.713-2.72-4.882-5.851-5.09a3.419,3.419,0,0,0,2.449-3.493m3.639,1.765a2.59,2.59,0,0,0-2.32-2.793,1.989,1.989,0,0,0-.951.246,4.37,4.37,0,0,1,.1.916,4,4,0,0,1-1.2,2.926,2.862,2.862,0,0,0,.352.6,6.829,6.829,0,0,1,1.82.894,2.619,2.619,0,0,0,2.2-2.789m2.683,6.819A4.757,4.757,0,0,0,13.651,8.1q.185.129.361.271a5.392,5.392,0,0,1,2.063,3.739v.014Z" fill="#6b778c"/>
</svg>