<svg xmlns="http://www.w3.org/2000/svg" width="22.085" height="22" viewBox="0 0 22.085 22"><g transform="translate(0 -0.117)"><path d="M17.972,16.464H14.305V18.64h3.666c1.091,0,1.937.557,1.937,1.036v9.648c0,.479-.846,1.036-1.937,1.036H4.112c-1.09,0-1.936-.557-1.936-1.036V19.677c0-.479.846-1.036,1.936-1.036H7.778V16.465H4.112C1.806,16.465,0,17.876,0,19.677v9.648c0,1.8,1.806,3.212,4.112,3.212H17.973c2.305,0,4.112-1.411,4.112-3.212V19.677C22.084,17.875,20.278,16.464,17.972,16.464Z" transform="translate(0 -10.419)" fill="#344563"/><path d="M26.172,10.592a1.084,1.084,0,0,0-.769.319L24.04,12.273V1.2a1.088,1.088,0,1,0-2.176,0V12.346l-1.436-1.435a1.088,1.088,0,0,0-1.538,1.538L22.139,15.7a1.084,1.084,0,0,0,.769.318h.016a1.082,1.082,0,0,0,.769-.318l3.248-3.248a1.088,1.088,0,0,0-.769-1.857Z" transform="translate(-11.837 0)" fill="#344563"/></g></svg>