<svg xmlns="http://www.w3.org/2000/svg" width="20.077" height="20" viewBox="0 0 20.077 20"><g transform="translate(0 -0.117)"><path d="M16.338,16.464H13v1.978h3.333c.992,0,1.761.506,1.761.942v8.771c0,.435-.769.942-1.761.942H3.738c-.991,0-1.76-.507-1.76-.942v-8.77c0-.436.769-.942,1.76-.942H7.071V16.465H3.738c-2.1,0-3.738,1.283-3.738,2.92v8.771c0,1.638,1.642,2.92,3.738,2.92h12.6c2.1,0,3.738-1.283,3.738-2.92V19.385C20.077,17.747,18.435,16.464,16.338,16.464Z" transform="translate(0 -10.958)" fill="#a5adba"/><path d="M25.481,9.64a.986.986,0,0,0-.7.29l-1.238,1.238V1.106a.989.989,0,1,0-1.978,0V11.234L20.26,9.93a.989.989,0,0,0-1.4,1.4l2.953,2.953a.985.985,0,0,0,.7.289h.015a.984.984,0,0,0,.7-.289l2.953-2.953a.989.989,0,0,0-.7-1.688Z" transform="translate(-12.45 0)" fill="#a5adba"/></g></svg>