<svg xmlns="http://www.w3.org/2000/svg" width="35.075" height="17.96" viewBox="0 0 35.075 17.96"><g transform="translate(-85.05 -5.897)"><g transform="translate(85.05 5.897)"><path d="M90.038,9h2.3V20.686c0,3.1-1.355,5.233-4.529,5.233a8.18,8.18,0,0,1-2.762-.436V23.244a6.456,6.456,0,0,0,2.378.436c1.945,0,2.616-1.163,2.616-2.84Z" transform="translate(-85.05 -8.098)" fill="#253858"/><path d="M120.806,5.9a1.436,1.436,0,0,1,1.535,1.535,1.535,1.535,0,0,1-3.07,0A1.436,1.436,0,0,1,120.806,5.9Zm-1.125,4.913h2.2V23.6h-2.2Z" transform="translate(-109.32 -5.897)" fill="#253858"/><path d="M139.7,22.324h2.148v2.25a4.231,4.231,0,0,1,4.529-2.43v2.148c-2.814-.291-4.529.564-4.529,3.273v7.558H139.7Z" transform="translate(-123.813 -17.411)" fill="#253858"/><path d="M175.1,32.664a4.507,4.507,0,0,1-4.323,2.558c-3.4,0-5.116-2.89-5.116-6.651,0-3.608,1.791-6.651,5.372-6.651a4.2,4.2,0,0,1,4.07,2.506v-2.25h2.2V34.966h-2.2Zm-3.735.512c1.971,0,3.735-1.253,3.735-4.093V28.048c0-2.84-1.61-4.093-3.488-4.093-2.483,0-3.762,1.637-3.762,4.6C167.861,31.641,169.087,33.176,171.363,33.176Z" transform="translate(-142.227 -17.262)" fill="#253858"/></g></g></svg>