<svg id="Group_618" data-name="Group 618" xmlns="http://www.w3.org/2000/svg" width="12" height="16" viewBox="0 0 12 16">
  <path id="Path_112" data-name="Path 112" d="M75.667,6h-1V4.667a4.667,4.667,0,0,0-9.333,0V6h-1A.333.333,0,0,0,64,6.333v8.333A1.335,1.335,0,0,0,65.333,16h9.333A1.335,1.335,0,0,0,76,14.667V6.333A.333.333,0,0,0,75.667,6ZM71,12.963a.333.333,0,0,1-.331.37H69.333a.333.333,0,0,1-.331-.37l.21-1.891A1.319,1.319,0,0,1,68.667,10a1.333,1.333,0,0,1,2.667,0,1.319,1.319,0,0,1-.546,1.072ZM72.667,6H67.333V4.667a2.667,2.667,0,0,1,5.333,0Z" transform="translate(-64)" fill="#0052cc"/>
</svg>
