<svg xmlns="http://www.w3.org/2000/svg" width="10.5" height="16.785" viewBox="0 0 14 16.785"><g transform="translate(-64)"><g transform="translate(64)"><path d="M77.611,6.294H76.444V4.9a5.475,5.475,0,0,0-10.889,0v1.4H64.389a.371.371,0,0,0-.389.35v8.742a1.485,1.485,0,0,0,1.556,1.4H76.444A1.485,1.485,0,0,0,78,15.386V6.644A.371.371,0,0,0,77.611,6.294Zm-5.447,7.3a.328.328,0,0,1-.1.272.41.41,0,0,1-.29.116H70.222a.41.41,0,0,1-.29-.116.328.328,0,0,1-.1-.272l.245-1.984a1.345,1.345,0,0,1-.636-1.125,1.564,1.564,0,0,1,3.111,0,1.345,1.345,0,0,1-.636,1.125Zm1.947-7.3H67.889V4.9a3.129,3.129,0,0,1,6.222,0Z" transform="translate(-64)" fill="#b2bed4"/></g></g></svg>