<svg xmlns="http://www.w3.org/2000/svg" width="23.536" height="26.898" viewBox="0 0 23.536 26.898"><g transform="translate(-32)"><path d="M97.681,0A1.686,1.686,0,0,0,96,1.681V25.217A1.686,1.686,0,0,0,97.681,26.9h16.812a1.686,1.686,0,0,0,1.681-1.681V6.725L109.449,0Z" transform="translate(-60.638)" fill="#e2e5e7"/><path d="M353.681,6.725h5.044L352,0V5.043A1.686,1.686,0,0,0,353.681,6.725Z" transform="translate(-303.188)" fill="#b0b7bd"/><path d="M389.043,133.043,384,128h5.043Z" transform="translate(-333.507 -121.275)" fill="#cad1d8"/><path d="M52.174,249.246a.843.843,0,0,1-.841.841H32.841a.843.843,0,0,1-.841-.841v-8.406a.843.843,0,0,1,.841-.841H51.333a.843.843,0,0,1,.841.841Z" transform="translate(0 -227.391)" fill="#f15642"/><g transform="translate(35.664 15.462)"><path d="M101.744,294.784a.463.463,0,0,1,.456-.464h1.553a1.68,1.68,0,0,1,0,3.361h-1.122v.888a.422.422,0,0,1-.43.463.453.453,0,0,1-.456-.463Zm.887.383v1.674h1.122a.838.838,0,0,0,0-1.674Z" transform="translate(-101.744 -294.32)" fill="#fff"/><path d="M188.288,300.123a.421.421,0,0,1-.464-.416v-3.818a.457.457,0,0,1,.464-.417h1.539c3.071,0,3,4.651.061,4.651Zm.424-3.83V299.3h1.115c1.815,0,1.9-3.011,0-3.011Z" transform="translate(-183.302 -295.411)" fill="#fff"/><path d="M288.015,296.331V297.4h1.714a.52.52,0,0,1,.484.477.467.467,0,0,1-.484.4h-1.714v1.411a.4.4,0,0,1-.4.416.427.427,0,0,1-.477-.416v-3.818a.425.425,0,0,1,.477-.417h2.359a.419.419,0,0,1,.471.417.464.464,0,0,1-.471.457h-1.957Z" transform="translate(-277.396 -295.396)" fill="#fff"/></g><path d="M111.971,416.841H96v.841h15.971a.843.843,0,0,0,.841-.841V416A.843.843,0,0,1,111.971,416.841Z" transform="translate(-60.638 -394.145)" fill="#cad1d8"/></g></svg>