<svg xmlns="http://www.w3.org/2000/svg" width="24" height="24" viewBox="0 0 24 24"><defs><style>.a{fill:#42526e;}</style></defs><g transform="translate(12)"><path class="a" d="M256.5,0a.5.5,0,0,0-.5.5v11a.5.5,0,0,0,.5.5h11a.5.5,0,0,0,.5-.5A11.513,11.513,0,0,0,256.5,0Z" transform="translate(-256)"/></g><g transform="translate(0 1)"><path class="a" d="M17.895,41.526,11,32.662V21.833a.5.5,0,0,0-.5-.5c-5.79,0-10.5,5.159-10.5,11.5a11.513,11.513,0,0,0,11.5,11.5,8.542,8.542,0,0,0,6.317-2.114A.5.5,0,0,0,17.895,41.526Z" transform="translate(0 -21.333)"/></g><g transform="translate(13 13)"><path class="a" d="M287.837,277.333h-10a.5.5,0,0,0-.388.814l6.5,8.047a.5.5,0,0,0,.354.185h.035a.5.5,0,0,0,.341-.134,11.548,11.548,0,0,0,3.658-8.413A.5.5,0,0,0,287.837,277.333Z" transform="translate(-277.338 -277.333)"/></g></svg>