<svg xmlns="http://www.w3.org/2000/svg" width="24" height="21.095" viewBox="0 0 24 21.095"><g transform="translate(0 -30.985)"><g transform="translate(0 30.985)"><g transform="translate(0 0)"><path d="M16.688,35.345l-5.625-4.219a.705.705,0,0,0-1.125.563V33.8h-2.2a7.732,7.732,0,0,0-.759,15.427l-2.011-1.5a.7.7,0,0,1,0-1.125l2.137-1.6a3.516,3.516,0,0,1,.633-6.975h2.2v2.109a.705.705,0,0,0,1.125.562l5.625-4.219A.7.7,0,0,0,16.688,35.345Z" transform="translate(0 -30.985)" fill="#0052cc"/></g></g><g transform="translate(7.031 33.84)"><g transform="translate(0 0)"><path d="M159.987,91.884l2.011,1.5a.7.7,0,0,1,0,1.125l-2.137,1.6a3.516,3.516,0,0,1-.633,6.975h-2.109v-2.109a.705.705,0,0,0-1.125-.563l-5.719,4.219a.7.7,0,0,0,0,1.125l5.719,4.219a.7.7,0,0,0,1.125-.562v-2.109h2.109a7.732,7.732,0,0,0,.759-15.427Z" transform="translate(-149.992 -91.884)" fill="#0052cc"/></g></g></g></svg>