<svg xmlns="http://www.w3.org/2000/svg" width="24" height="24" viewBox="0 0 24 24"><g transform="translate(0)"><path d="M6.1,138.268l-2.079.161a1.855,1.855,0,0,0-1.414.832l-2.4,3.627a1.285,1.285,0,0,0,.875,1.979l1.9.295A17.048,17.048,0,0,1,6.1,138.268Z" transform="translate(0 -131.787)" fill="#42526e"/><path d="M226.682,384.876l.295,1.9a1.284,1.284,0,0,0,1.979.875l3.627-2.4a1.855,1.855,0,0,0,.832-1.414l.161-2.079A17.047,17.047,0,0,1,226.682,384.876Z" transform="translate(-216.057 -363.869)" fill="#42526e"/><path d="M97.6,244.1a1.208,1.208,0,0,0,.2-.016,13.775,13.775,0,0,0,2.855-.81l-7.825-7.825a13.775,13.775,0,0,0-.81,2.855,1.227,1.227,0,0,0,.345,1.068l4.366,4.366A1.231,1.231,0,0,0,97.6,244.1Z" transform="translate(-87.692 -224.411)" fill="#42526e"/><path d="M139.238,10.641a18.958,18.958,0,0,0,1.886-9.449A1.232,1.232,0,0,0,139.959.028c-.3-.016-.653-.028-1.052-.028a18.576,18.576,0,0,0-8.4,1.914,19.1,19.1,0,0,0-7.6,7.765.706.706,0,0,1,.065.057l8.437,8.437a.705.705,0,0,1,.057.065A19.1,19.1,0,0,0,139.238,10.641Zm-8.132-5.567a3.515,3.515,0,1,1-1.03,2.486,3.52,3.52,0,0,1,1.03-2.486Z" transform="translate(-117.152)" fill="#42526e"/><path d="M306.349,119.894a2.109,2.109,0,1,0-.618-1.492A2.112,2.112,0,0,0,306.349,119.894Z" transform="translate(-291.4 -110.843)" fill="#42526e"/><path d="M1.008,346.666a.7.7,0,0,0,.5-.206l2.3-2.3a.7.7,0,1,0-.994-.994l-2.3,2.3a.7.7,0,0,0,.5,1.2Z" transform="translate(-0.29 -326.888)" fill="#42526e"/><path d="M5.617,388.051a.7.7,0,0,0-.994,0L.209,392.465a.7.7,0,1,0,.994.994l4.413-4.413a.7.7,0,0,0,0-.994Z" transform="translate(-0.004 -369.665)" fill="#42526e"/><path d="M92.568,432.932l-2.3,2.3a.7.7,0,1,0,.994.994l2.3-2.3a.7.7,0,1,0-.994-.994Z" transform="translate(-85.845 -412.443)" fill="#42526e"/></g></svg>