<svg xmlns="http://www.w3.org/2000/svg" width="24.005" height="24" viewBox="0 0 24.005 24"><g transform="translate(0 -0.05)"><g transform="translate(0 0.05)"><path d="M184.145,10.673a2.286,2.286,0,1,0,1.678,2.2,2.249,2.249,0,0,0-.083-.608L192.108,5.9l1.03.137,3.224-3.224-2.439-.324L193.6.05l-3.224,3.224.137,1.03Z" transform="translate(-172.357 -0.05)" fill="#42526e"/><path d="M99.7,128.621l1.884-1.884a6.625,6.625,0,1,0,4.146,4.141l-1.884,1.884a4.4,4.4,0,1,1-4.146-4.141Z" transform="translate(-88.271 -120.187)" fill="#42526e"/><path d="M19.079,41.1a8.743,8.743,0,1,1-4.146-4.146l1.8-1.8a11.175,11.175,0,1,0,4.141,4.141Z" transform="translate(0 -32.028)" fill="#42526e"/></g></g></svg>