<svg id="unlock" xmlns="http://www.w3.org/2000/svg" width="15.38" height="22" viewBox="0 0 15.38 22">
  <g id="Group_628" data-name="Group 628">
    <path id="Path_115" data-name="Path 115" d="M91.407,8.817H81.519V5.631a3.435,3.435,0,0,1,2.637-3.406,3.365,3.365,0,0,1,3.955,3.3,1.1,1.1,0,1,0,2.2,0A5.516,5.516,0,0,0,84.266.028a5.7,5.7,0,0,0-4.944,5.713V8.817h-1.1a1.1,1.1,0,0,0-1.1,1.1V20.9a1.181,1.181,0,0,0,1.1,1.1H91.407a1.1,1.1,0,0,0,1.1-1.1V9.915A1.038,1.038,0,0,0,91.407,8.817Zm-5.493,7.361v1.428a1.1,1.1,0,1,1-2.2,0V16.177a2.266,2.266,0,0,1-1.1-1.868,2.177,2.177,0,0,1,2.747-2.087,2.476,2.476,0,0,1,1.648,1.648A2.139,2.139,0,0,1,85.914,16.177Z" transform="translate(-77.125 0)" fill="#6b778c"/>
  </g>
</svg>
