<svg xmlns="http://www.w3.org/2000/svg" width="13.41" height="14.304" viewBox="0 0 13.41 14.304"><g transform="translate(-16)"><g transform="translate(19.129)"><path d="M135.039,3.729,131.91.153a.446.446,0,0,0-.672,0l-3.129,3.576a.447.447,0,0,0,.336.741h1.788v5.811a.447.447,0,0,0,.447.447h1.788a.447.447,0,0,0,.447-.447V4.47H134.7a.447.447,0,0,0,.336-.741Z" transform="translate(-127.998)" fill="#344563"/></g><g transform="translate(16 9.834)"><g transform="translate(0)"><path d="M27.622,352v2.682H17.788V352H16v3.576a.894.894,0,0,0,.894.894H28.516a.893.893,0,0,0,.894-.894V352Z" transform="translate(-16 -352)" fill="#344563"/></g></g></g></svg>